<svg width="28" height="20" viewBox="0 0 28 20" fill="none" xmlns="http://www.w3.org/2000/svg">
<g clip-path="url(#clip0_211_2050)">
<path fill-rule="evenodd" clip-rule="evenodd" d="M7.04577 3.0833L0.0949707 9.96421C1.48526 11.3405 3.07345 12.5005 4.80502 13.4079C5.28364 14.6648 6.03386 15.8434 7.05567 16.8549C10.9 20.6606 17.1328 20.6606 20.9771 16.8549C21.9989 15.8434 22.7491 14.6648 23.2277 13.4079C24.9593 12.5005 26.5475 11.3405 27.9377 9.96421L20.9926 3.08889C20.9874 3.08375 20.9823 3.07861 20.9771 3.07347C17.1328 -0.732172 10.9 -0.732172 7.05567 3.07347C7.05237 3.07675 7.04907 3.08002 7.04577 3.0833ZM20.312 14.6494C18.2864 15.3261 16.16 15.6727 14.0164 15.6727C11.8727 15.6727 9.74639 15.3261 7.72083 14.6494C7.9403 14.9376 8.1826 15.2142 8.4478 15.4768C11.5232 18.5213 16.5095 18.5213 19.5849 15.4768C19.8501 15.2142 20.0925 14.9376 20.312 14.6494ZM8.59057 4.3138C9.11283 4.65536 9.66815 4.94765 10.2492 5.18594C11.4435 5.67567 12.7236 5.92773 14.0164 5.92773C15.3091 5.92773 16.5892 5.67567 17.7835 5.18594C18.3646 4.94765 18.9199 4.65536 19.4422 4.31378C16.4051 1.45304 11.6276 1.45305 8.59057 4.3138Z" fill="#3B4158"/>
</g>
<defs>
<clipPath id="clip0_211_2050">
<rect width="27.8428" height="19.4899" fill="white" transform="translate(0.0949707 0.219238)"/>
</clipPath>
</defs>
</svg>
