<svg width="33" height="21" viewBox="0 0 33 21" fill="none" xmlns="http://www.w3.org/2000/svg">
<g clip-path="url(#clip0_211_2057)">
<path d="M30.7852 2.70056C30.7852 2.72409 30.7852 2.75352 30.779 2.77117C30.7484 3.00065 30.7484 3.23013 30.7667 3.4655C30.779 3.52435 30.7913 3.58319 30.8403 3.63026C30.92 3.71852 31.0426 3.70087 31.0917 3.59496C31.1162 3.542 31.1162 3.48904 31.1039 3.43608C31.0426 3.21248 31.0304 2.97712 31.0243 2.74763C31.0243 2.73586 31.0243 2.71821 31.0243 2.70056C31.0917 2.69467 31.153 2.68879 31.2082 2.68879C31.2511 2.68291 31.2879 2.67702 31.3186 2.65937C31.4105 2.6123 31.4105 2.51226 31.3124 2.46519C31.2756 2.44754 31.2266 2.44165 31.1837 2.44165C31.0304 2.44754 30.8771 2.44754 30.7238 2.44754C30.6687 2.44754 30.6135 2.45342 30.5583 2.4593C30.5276 2.46519 30.4909 2.46519 30.4664 2.48284C30.4234 2.50049 30.3989 2.52991 30.3989 2.5711C30.405 2.6123 30.4234 2.63583 30.4664 2.65348C30.4909 2.67114 30.5215 2.67702 30.5522 2.67702C30.6257 2.68291 30.7055 2.69467 30.7852 2.70056ZM32.4711 2.97123C32.4711 2.97712 32.4772 2.983 32.4772 2.983C32.5018 3.14187 32.5263 3.29486 32.5447 3.44785C32.5508 3.50081 32.557 3.54788 32.5937 3.58907C32.6734 3.6891 32.7961 3.67733 32.8512 3.57142C32.8758 3.51846 32.8819 3.4655 32.8696 3.40666C32.8328 3.23013 32.8144 3.05361 32.7777 2.88297C32.7531 2.77705 32.7225 2.67702 32.6918 2.58287C32.6734 2.52403 32.6305 2.48284 32.557 2.47696C32.4834 2.46519 32.4282 2.50049 32.3975 2.55345C32.3608 2.60052 32.3301 2.6476 32.3056 2.70056C32.2627 2.7947 32.2259 2.88885 32.1769 2.97712C32.1707 3.00065 32.1646 3.01831 32.1523 3.03595C32.1462 3.02419 32.1401 3.01831 32.1401 3.01831C32.0603 2.8712 31.9868 2.72409 31.9071 2.58287C31.8948 2.5711 31.8887 2.55933 31.8826 2.54757C31.8458 2.49461 31.8029 2.46519 31.7354 2.46519C31.6741 2.47107 31.625 2.50638 31.5944 2.55933C31.5821 2.58287 31.5821 2.60052 31.576 2.62406C31.5515 2.81236 31.5208 3.00065 31.4963 3.18895C31.484 3.29486 31.4779 3.40077 31.4779 3.50669C31.4718 3.53023 31.4779 3.55965 31.4902 3.58319C31.5025 3.63026 31.5392 3.65968 31.5883 3.66557C31.6496 3.67145 31.6925 3.6538 31.7109 3.60672C31.7293 3.57142 31.7354 3.542 31.7416 3.51258C31.7661 3.40666 31.7845 3.30663 31.8029 3.2066C31.8151 3.14776 31.8212 3.10068 31.8397 3.03595C31.8519 3.05949 31.8641 3.07715 31.8764 3.0948C31.9316 3.16541 31.9868 3.23602 32.0542 3.29486C32.1217 3.34193 32.1769 3.33605 32.232 3.28309C32.2443 3.27132 32.2504 3.26544 32.2627 3.25367C32.3179 3.17129 32.3853 3.08891 32.4405 3.00653C32.4527 2.99477 32.4589 2.983 32.4711 2.97123Z" fill="#3A3B7B"/>
<path d="M18.3447 2.81622C18.3021 2.92805 18.294 3.00861 18.3136 3.07558C18.3354 3.16663 18.3918 3.19644 18.4683 3.17329C19.1884 3.00238 20.7675 3.48749 21.3521 3.62269C21.49 3.65108 21.6022 3.48026 21.5081 3.3271C21.3708 3.17878 19.7924 2.54376 19.1902 2.50913C18.9541 2.49633 18.5321 2.43823 18.3447 2.81622Z" fill="#3A3B7B"/>
<path d="M24.516 0.760591C24.5928 0.803106 24.6357 0.843661 24.6568 0.888974C24.6884 0.948413 24.6717 0.989537 24.6187 1.01052C24.1427 1.23349 23.5093 2.19344 23.2536 2.52451C23.1917 2.60067 23.0487 2.55641 23.0271 2.43117C23.0315 2.28955 23.593 1.2478 23.9064 0.964066C24.0295 0.853286 24.233 0.635923 24.516 0.760591Z" fill="#3A3B7B"/>
<path d="M20.7255 0.287961C20.8177 0.221266 20.9135 0.197894 20.9624 0.241237C21.6806 0.830737 22.0615 1.76426 22.2973 2.61888C22.3062 2.63879 22.3067 2.66737 22.2996 2.69717C22.2967 2.72265 22.2773 2.74956 22.2465 2.77038C22.2136 2.79337 22.1853 2.80037 22.1719 2.78056C21.8572 2.36965 20.0594 0.770876 20.7255 0.287961Z" fill="#3A3B7B"/>
<path d="M5.51682 10.5083C5.68895 10.3853 5.87608 10.2829 6.07411 10.2035C6.28129 10.1466 6.50211 10.156 6.70322 10.2304C6.90428 10.3047 7.07473 10.4398 7.18867 10.6153C7.2906 10.7904 7.33046 10.9925 7.30233 11.1913C7.27419 11.39 7.17955 11.5745 7.03262 11.7172C6.91872 11.8328 6.7894 11.9335 6.64812 12.0167C6.0184 12.4072 5.38307 12.7762 4.74777 13.1667C4.61777 13.2644 4.47987 13.352 4.33537 13.4287C4.11559 13.5339 3.86441 13.5621 3.62526 13.5084C3.38613 13.4547 3.17407 13.3225 3.02575 13.1346C2.91488 13.0015 2.82131 12.8561 2.74711 12.7013C2.14524 11.4872 1.52108 10.2784 0.941505 9.04279C0.674007 8.50795 0.456667 7.89283 0.244898 7.29913C0.153278 7.12663 0.135386 6.92665 0.195034 6.74167C0.254681 6.5567 0.387162 6.40136 0.564294 6.30868C0.741428 6.21601 0.949236 6.19335 1.14353 6.24546C1.33782 6.29758 1.50326 6.42039 1.60467 6.58775C1.91638 6.98533 2.1923 7.40763 2.42946 7.85007C3.03132 8.91979 3.60533 9.98951 4.18491 11.0272C4.21865 11.0845 4.25587 11.1398 4.29636 11.193C4.73259 11.0169 5.14289 10.7868 5.51682 10.5083Z" fill="#3A3B7B"/>
<path d="M11.7398 10.1351C10.3634 11.6809 8.05619 11.2904 6.89704 9.30072C6.07224 7.88866 5.92736 5.55663 7.72184 4.08574C8.10503 3.7778 8.56323 3.56803 9.05372 3.47599C9.65512 3.39324 10.2684 3.49507 10.8059 3.76693C11.3433 4.03879 11.7775 4.46675 12.0464 4.98968C13.0272 6.70127 12.8879 8.88351 11.7398 10.1351ZM11.1826 6.5301C11.0363 6.1095 10.743 5.75041 10.3522 5.51383C10.1311 5.36257 9.8624 5.28903 9.59142 5.30559C9.3204 5.32215 9.06363 5.4278 8.86426 5.60475C8.06736 6.28406 7.90014 7.89403 8.47971 8.85144C8.5536 9.00757 8.66208 9.1463 8.79766 9.25796C8.93324 9.36963 9.09261 9.45152 9.2646 9.49786C9.43659 9.54424 9.61703 9.55396 9.79337 9.52639C9.9697 9.49877 10.1376 9.43455 10.2854 9.33816C10.7173 9.0167 11.0343 8.57407 11.192 8.07181C11.3499 7.56949 11.3407 7.0325 11.1659 6.53547L11.1826 6.5301Z" fill="#3A3B7B"/>
<path d="M17.3572 7.20421C17.2163 7.23329 17.0707 7.23504 16.929 7.2093C16.7874 7.18356 16.6525 7.13094 16.5324 7.05447C16.4273 6.99675 16.3368 6.91743 16.2675 6.82214C16.1982 6.72686 16.1517 6.61803 16.1315 6.50343C16.1112 6.38888 16.1177 6.27143 16.1504 6.15954C16.1831 6.04764 16.2413 5.9441 16.3207 5.85633C16.459 5.67998 16.6554 5.55373 16.8779 5.49799C17.459 5.33613 18.0572 5.23745 18.6613 5.20382C18.794 5.189 18.9284 5.19978 19.0567 5.23552C19.1851 5.27131 19.3046 5.33127 19.4085 5.41201C19.5123 5.49271 19.5983 5.59254 19.6614 5.70558C19.7244 5.81862 19.7633 5.94263 19.7758 6.07031C19.95 6.69745 19.969 7.35501 19.8315 7.9905C19.33 10.0444 17.6024 10.7504 15.663 10.0925C15.1187 9.91661 14.6413 9.58887 14.2921 9.15115C13.8264 8.62402 13.4961 7.99931 13.328 7.32725C13.1918 6.72878 13.2067 6.10779 13.3716 5.51602C13.5364 4.92424 13.8463 4.37888 14.2754 3.92547C14.6827 3.43267 15.2112 3.04484 15.8135 2.7969C16.1941 2.59556 16.6395 2.53832 17.0619 2.63643C17.1577 2.66189 17.2446 2.71148 17.3138 2.78007C17.3829 2.84867 17.4316 2.93376 17.4549 3.02652C17.4783 3.11929 17.4753 3.21635 17.4463 3.30765C17.4174 3.39894 17.3635 3.48114 17.2903 3.54571C17.1512 3.66662 17 3.77411 16.8389 3.86663C16.3435 4.16946 15.9123 4.55967 15.5683 5.0166C15.3428 5.31227 15.1875 5.65181 15.1134 6.01126C15.0392 6.37071 15.048 6.7414 15.1392 7.09727C15.2656 7.58247 15.5461 8.01798 15.9417 8.34348C17.1677 9.41325 18.7615 8.38092 18.4829 6.92073C18.0761 7.01703 17.7194 7.11865 17.3572 7.20421Z" fill="#3A3B7B"/>
<path d="M24.8472 10.2208C23.036 11.2906 20.974 10.2208 20.5226 7.97441C20.1938 6.36981 20.818 4.12334 23.0026 3.26755C23.4674 3.08939 23.9715 3.02683 24.4682 3.08569C25.065 3.19055 25.6125 3.47252 26.0334 3.89187C26.4543 4.31122 26.7275 4.84677 26.8144 5.42308C27.1822 7.33254 26.3463 9.37041 24.8472 10.2208ZM25.4769 6.62117C25.4764 6.17685 25.3126 5.74688 25.0144 5.40703C24.855 5.19682 24.6245 5.0462 24.3623 4.98083C24.1001 4.9155 23.8224 4.93944 23.5765 5.04868C22.5957 5.45515 21.9047 6.93139 22.1555 8.01721C22.1747 8.1876 22.2323 8.35194 22.3245 8.4987C22.4167 8.64546 22.5412 8.77112 22.6894 8.86691C22.8374 8.96265 23.0055 9.02624 23.1819 9.05317C23.3582 9.08005 23.5386 9.06969 23.7103 9.02275C24.2287 8.84892 24.6776 8.52407 24.9943 8.09351C25.3111 7.66295 25.4798 7.14821 25.4769 6.62117Z" fill="#3A3B7B"/>
<path d="M28.646 10.6702C28.6187 10.866 28.5115 11.0433 28.3479 11.1632C28.1843 11.283 27.9779 11.3356 27.7739 11.3094C27.5699 11.2832 27.3852 11.1802 27.2603 11.0232C27.1354 10.8663 27.0806 10.6681 27.108 10.4723C27.1353 10.2766 27.2426 10.0993 27.4061 9.97938C27.5697 9.8595 27.7761 9.80693 27.9801 9.83317C28.1841 9.85941 28.3688 9.96231 28.4937 10.1193C28.6186 10.2763 28.6734 10.4745 28.646 10.6702ZM28.1612 3.45483C28.2672 3.29947 28.4227 3.18115 28.6045 3.11754C28.7863 3.05392 28.9846 3.0484 29.1699 3.10182C29.3583 3.14706 29.5247 3.25304 29.6414 3.40202C29.7581 3.551 29.8179 3.73393 29.8108 3.92017C29.7862 4.21891 29.7397 4.51561 29.6715 4.80804C29.4876 5.79757 29.3092 6.78705 29.1142 7.76589C29.025 8.15635 28.908 8.53076 28.7798 8.92654C28.7352 9.05027 28.6607 9.16207 28.5625 9.25282C28.5014 9.32108 28.4234 9.37343 28.3356 9.40504C28.2479 9.4367 28.1532 9.44656 28.0604 9.43376C27.9677 9.42096 27.8797 9.38591 27.8048 9.33187C27.7299 9.27778 27.6704 9.20644 27.6318 9.12445C27.5656 8.97737 27.5296 8.81932 27.5259 8.65912C27.5259 7.99587 27.5259 7.3273 27.5705 6.65869C27.6463 5.70453 27.7953 4.75702 28.0163 3.82389C28.0424 3.69888 28.0914 3.57932 28.1612 3.47088V3.45483Z" fill="#3A3B7B"/>
<path fill-rule="evenodd" clip-rule="evenodd" d="M3.16219 14.9682C3.09639 15.1092 3.07834 15.2663 3.1105 15.4176C3.13189 15.617 3.17887 15.8131 3.25038 16.0015C3.33966 16.2322 3.43955 16.4603 3.56273 16.7414C3.59106 16.8061 3.62066 16.8736 3.65164 16.9447C3.81775 17.3255 4.02617 17.8123 4.30418 18.5168C4.38287 18.7169 4.45275 18.9186 4.52311 19.1218C4.55154 19.2039 4.58006 19.2862 4.60926 19.3687C4.71393 19.6622 4.89404 19.9258 5.13276 20.1347C5.23414 20.2495 5.3686 20.3332 5.51937 20.3751C5.67308 20.4177 5.83656 20.415 5.98864 20.3673C6.14072 20.3195 6.27429 20.229 6.37202 20.1074C6.46783 19.9881 6.5248 19.8444 6.53588 19.6943C6.59803 19.4019 6.57682 19.0987 6.47437 18.8168C6.31178 18.3487 6.12656 17.8799 5.91298 17.4214L5.912 17.4194C5.56063 16.7021 5.20348 15.9897 4.82942 15.277L4.82662 15.272C4.71712 15.0864 4.57481 14.9204 4.40609 14.7816C4.29656 14.6576 4.14548 14.5741 3.97863 14.5452C3.80823 14.5158 3.63248 14.5455 3.48277 14.6289C3.34114 14.7066 3.22887 14.8253 3.16219 14.9682Z" fill="#3A3B7B"/>
<path fill-rule="evenodd" clip-rule="evenodd" d="M8.52871 13.2017C7.97778 13.0648 7.40242 13.0448 6.8427 13.1433C6.40918 13.1843 5.98281 13.2802 5.68673 13.4703C5.53615 13.5671 5.4144 13.6913 5.34668 13.8492C5.27859 14.008 5.26989 14.1896 5.3257 14.3919C5.42758 14.7625 5.55989 15.1228 5.69173 15.482L5.71309 15.5402L5.71361 15.5415C6.11058 16.5849 6.51135 17.6248 6.91575 18.6611C6.96291 18.8245 7.0296 18.982 7.11447 19.1306L7.11606 19.1333C7.22818 19.318 7.37199 19.4831 7.54141 19.6218C7.62614 19.698 7.73092 19.7508 7.84454 19.7743C7.95928 19.7981 8.07859 19.7912 8.1895 19.7543C8.30045 19.7175 8.39869 19.6521 8.47356 19.5653C8.54722 19.4799 8.59545 19.3771 8.61316 19.2676C8.68626 18.9703 8.66284 18.6585 8.546 18.3743C8.50955 18.2786 8.48094 18.1808 8.4508 18.0779C8.44075 18.0436 8.43056 18.0087 8.41981 17.9732C9.34552 17.6259 10.3305 17.1589 10.6768 16.0725C10.8125 15.6971 10.8238 15.2906 10.7092 14.9087C10.5945 14.5264 10.3592 14.1875 10.0357 13.9388C9.59537 13.5906 9.08104 13.339 8.52871 13.2017ZM7.00161 14.5342C7.01983 14.5292 7.0382 14.5245 7.05662 14.5202C7.65928 14.4292 8.27587 14.5504 8.79286 14.8613C9.0207 15.0133 9.11403 15.1823 9.13006 15.3449C9.14661 15.5123 9.08319 15.6937 8.95578 15.8681C8.71505 16.1975 8.27573 16.4611 7.87889 16.5103C7.58959 15.8708 7.29581 15.2055 7.00161 14.5342Z" fill="#3A3B7B"/>
<path d="M12.2016 12.0314C12.8577 11.7406 13.6704 11.6903 14.3064 11.8948C14.4665 11.9396 14.6055 12.0364 14.6995 12.1688C14.7928 12.3003 14.8359 12.4588 14.8215 12.6173C14.8206 12.7201 14.7943 12.8213 14.7448 12.9126C14.6944 13.0056 14.6215 13.0855 14.5321 13.1457C14.4427 13.2058 14.3396 13.2445 14.2314 13.2583C14.1232 13.2722 14.0131 13.2608 13.9104 13.2251L13.9026 13.2224L13.8953 13.2187C13.8427 13.1923 13.7869 13.1725 13.7292 13.1595L13.7256 13.1588C13.2782 13.0447 12.8562 13.2337 12.7021 13.4659C12.6286 13.5766 12.6195 13.6883 12.6807 13.79C12.7463 13.8989 12.9071 14.021 13.2325 14.1081C13.322 14.1317 13.4137 14.1544 13.5068 14.1776C13.7641 14.2415 14.0316 14.3079 14.2901 14.4L14.2911 14.4004C15.4841 14.836 15.9283 15.7383 15.7763 16.5869C15.6258 17.4262 14.8956 18.1899 13.7974 18.3701C13.3978 18.4551 12.982 18.4385 12.591 18.3221C12.1991 18.2052 11.8458 17.992 11.5663 17.7035L11.559 17.696C11.4707 17.5873 11.4114 17.4597 11.3851 17.3242C11.3609 17.2019 11.3736 17.0756 11.4218 16.96C11.4696 16.8451 11.5506 16.7457 11.655 16.6733C11.7654 16.5912 11.8984 16.5419 12.0376 16.5316C12.1764 16.5214 12.3152 16.5503 12.4371 16.6148C12.5588 16.6713 12.672 16.7432 12.7736 16.8288L12.7755 16.8304C12.9552 16.9882 13.1727 17.0293 13.3812 16.9912C13.5928 16.9526 13.7917 16.8324 13.9197 16.673C14.0468 16.5146 14.0979 16.3264 14.0373 16.1437C13.9764 15.9597 13.7931 15.7535 13.3905 15.5812C13.2852 15.5383 13.1761 15.5037 13.0626 15.47C13.032 15.4609 13.0008 15.4519 12.9693 15.4427C12.8854 15.4183 12.799 15.3931 12.7143 15.3653C12.656 15.3462 12.5982 15.3282 12.5409 15.3102C12.3842 15.2613 12.2316 15.2136 12.0846 15.1496C11.7648 15.045 11.4885 14.8444 11.2968 14.5772C11.1044 14.309 11.0075 13.9883 11.0207 13.6629C11.0217 12.8701 11.5421 12.3238 12.2016 12.0314Z" fill="#3A3B7B"/>
<path d="M20.5196 11.9468C20.3923 11.8872 20.2517 11.8589 20.1102 11.8645C19.9688 11.8701 19.831 11.9093 19.7093 11.9788C19.5884 12.0478 19.4872 12.1444 19.4147 12.2601C19.3482 12.3575 19.3021 12.4664 19.2792 12.5808C19.2562 12.6951 19.2568 12.8125 19.2808 12.9265C19.3045 13.073 19.3307 13.2155 19.3567 13.3561C19.3996 13.5886 19.4414 13.8159 19.469 14.0477L19.47 14.0536C19.5328 14.4171 19.5656 14.7847 19.5686 15.1531L19.5689 15.1583C19.5903 15.5562 19.4491 15.9462 19.1754 16.2458L19.1711 16.2511C19.082 16.3607 18.963 16.4442 18.8272 16.4926C18.6915 16.5409 18.5445 16.552 18.4026 16.5246C18.2606 16.4973 18.1294 16.4326 18.0236 16.3378C17.9178 16.2429 17.8415 16.1214 17.8034 15.9874C17.7221 15.7049 17.675 15.4143 17.663 15.1216L17.8019 12.9991C17.804 12.9714 17.8063 12.943 17.8087 12.9143C17.814 12.8498 17.8194 12.7842 17.8217 12.7229C17.8249 12.6328 17.8221 12.5401 17.8003 12.4524C17.7779 12.3628 17.7353 12.2775 17.6598 12.2049C17.585 12.133 17.484 12.0799 17.357 12.0438C17.1273 11.98 16.9331 11.982 16.7712 12.048C16.6093 12.1139 16.4983 12.2363 16.4198 12.3777C16.3419 12.5179 16.2919 12.6839 16.254 12.8501C16.2259 12.9735 16.2033 13.103 16.1819 13.2263C16.1745 13.2688 16.1672 13.3105 16.1599 13.351L16.1597 13.3522C16.0449 14.0282 16.0107 14.7146 16.0578 15.3981C16.0666 15.7675 16.1469 16.1321 16.2946 16.4732C16.4612 16.9135 16.763 17.2949 17.1601 17.5672C17.558 17.84 18.0329 17.9904 18.5219 17.9983C19.0108 18.0062 19.4908 17.8714 19.8981 17.6117C20.3048 17.3523 20.62 16.9806 20.802 16.5458C21.0566 15.9918 21.1761 15.3893 21.1514 14.7843C21.1365 14.3426 21.1114 13.8975 21.0865 13.4547C21.0743 13.2374 21.0621 13.0207 21.0511 12.8052C21.0456 12.5892 20.9714 12.3799 20.8384 12.2056C20.7561 12.0953 20.6465 12.0064 20.5196 11.9468Z" fill="#3A3B7B"/>
<path d="M25.0222 15.2748C25.0093 15.2905 24.9957 15.3068 24.9815 15.3238C24.878 14.7508 24.7821 14.1781 24.6861 13.6045C24.6516 13.3987 24.617 13.192 24.5822 12.9859L24.5782 12.963L24.5655 12.9431C24.5415 12.9057 24.5392 12.8691 24.5392 12.7909V12.7818L24.5377 12.7729C24.5117 12.6115 24.4356 12.4612 24.3194 12.3418C24.2035 12.2228 24.053 12.1399 23.8874 12.104C23.7221 12.0648 23.5484 12.0734 23.3881 12.1288C23.2283 12.184 23.0889 12.2832 22.9875 12.4139C22.9032 12.5142 22.8341 12.6255 22.7823 12.7444C22.6648 13.0006 22.5462 13.2574 22.4273 13.515L22.4252 13.5194C22.1284 14.1623 21.8296 14.8095 21.5395 15.4618L21.5386 15.4639C21.3605 15.8868 21.2134 16.3325 21.0669 16.7767C21.0376 16.8654 21.0084 16.9541 20.9789 17.0425C20.926 17.1827 20.9029 17.3316 20.9108 17.4805C20.9012 17.6137 20.9344 17.7467 21.0061 17.8613C21.0792 17.9783 21.1887 18.0703 21.3191 18.1245C21.4574 18.1827 21.6119 18.195 21.7584 18.1596C21.9045 18.1243 22.0342 18.0433 22.1272 17.9295C22.2459 17.7894 22.348 17.6365 22.4313 17.4746C22.6771 16.992 22.912 16.5036 23.1458 16.0173C23.2363 15.8292 23.3242 15.6608 23.4242 15.4773C23.4311 15.4999 23.4381 15.522 23.4453 15.5441C23.5501 15.9871 23.7271 16.4113 23.9696 16.8014C24.0155 16.884 24.0794 16.9562 24.157 17.0131C24.2355 17.0706 24.3261 17.111 24.4226 17.1315C24.519 17.152 24.6189 17.1521 24.7154 17.1317C24.8117 17.1115 24.9026 17.071 24.9811 17.0138L25.1366 16.9021L26.3435 15.9264L26.2721 16.3629C26.1742 16.963 26.077 17.558 25.9737 18.1532C25.9061 18.4169 25.9062 18.6925 25.974 18.9562C26.0033 19.1046 26.0781 19.2412 26.1888 19.3487C26.3004 19.457 26.4433 19.5306 26.599 19.5599C26.7547 19.5893 26.9161 19.573 27.062 19.5132C27.2059 19.4544 27.3282 19.3559 27.4138 19.2304C27.6128 18.9935 27.7366 18.7066 27.7706 18.404C27.8219 17.9766 27.8797 17.5434 27.9376 17.1103C28.0043 16.6111 28.071 16.112 28.1273 15.6226L28.1275 15.621C28.1817 15.0852 28.2079 14.5472 28.2061 14.0089C28.218 13.8388 28.1739 13.6693 28.0798 13.5245C27.9855 13.3792 27.8457 13.2662 27.6806 13.2015C27.5088 13.1266 27.3165 13.1065 27.1319 13.1444C26.9486 13.182 26.7826 13.2748 26.6581 13.4092C26.4355 13.6068 26.2267 13.8182 26.0329 14.0421L26.0316 14.0436C25.8202 14.2966 25.6101 14.5544 25.4014 14.8107C25.2746 14.9664 25.148 15.1218 25.0222 15.2748Z" fill="#3A3B7B"/>
</g>
<defs>
<clipPath id="clip0_211_2057">
<rect width="32.7153" height="20.186" fill="white" transform="translate(0.1604 0.219238)"/>
</clipPath>
</defs>
</svg>
