<svg width="37" height="14" viewBox="0 0 37 14" fill="none" xmlns="http://www.w3.org/2000/svg">
<g clip-path="url(#clip0_211_2077)">
<path d="M8.81726 0.00366211C7.40373 0.00366211 6.04811 0.565181 5.0486 1.5647L1.78662 4.82668C0.787105 5.82619 0.225586 7.18181 0.225586 8.59534C0.225586 11.5389 2.61178 13.9251 5.5553 13.9251C6.96883 13.9251 8.32445 13.3635 9.32396 12.364L11.5803 10.1077C11.5803 10.1076 11.5803 10.1077 11.5803 10.1077L18.1545 3.53348C18.6318 3.05612 19.2793 2.78794 19.9544 2.78794C21.0846 2.78794 22.0428 3.52457 22.375 4.54392L24.4498 2.46912C23.5033 0.98667 21.8436 0.00366211 19.9544 0.00366211C18.5408 0.00366211 17.1852 0.565181 16.1857 1.5647L7.35519 10.3952C6.87783 10.8726 6.23039 11.1408 5.5553 11.1408C4.14949 11.1408 3.00986 10.0012 3.00986 8.59534C3.00986 7.92025 3.27804 7.27281 3.7554 6.79544L7.01737 3.53348C7.49473 3.05612 8.14217 2.78794 8.81726 2.78794C9.94754 2.78794 10.9057 3.5246 11.2379 4.54399L13.3128 2.46917C12.3662 0.986698 10.7066 0.00366211 8.81726 0.00366211Z" fill="#394149"/>
<path d="M18.4924 10.3952C18.0151 10.8726 17.3676 11.1408 16.6925 11.1408C15.5624 11.1408 14.6043 10.4043 14.272 9.38515L12.1973 11.4599C13.1438 12.9422 14.8034 13.9251 16.6925 13.9251C18.1061 13.9251 19.4617 13.3635 20.4612 12.364L29.2917 3.53348C29.7691 3.05612 30.4165 2.78794 31.0916 2.78794C32.4974 2.78794 33.637 3.92756 33.637 5.33337C33.637 6.00847 33.3689 6.65591 32.8915 7.13327L29.6295 10.3952C29.1522 10.8726 28.5047 11.1408 27.8296 11.1408C26.6995 11.1408 25.7413 10.4042 25.409 9.38492L23.3343 11.4597C24.2808 12.9421 25.9404 13.9251 27.8296 13.9251C29.2432 13.9251 30.5988 13.3635 31.5983 12.364L34.8603 9.10203C35.8598 8.10252 36.4213 6.7469 36.4213 5.33337C36.4213 2.38985 34.0351 0.00366211 31.0916 0.00366211C29.6781 0.00366211 28.3225 0.565181 27.3229 1.5647L18.4924 10.3952Z" fill="#394149"/>
</g>
<defs>
<clipPath id="clip0_211_2077">
<rect width="36.1956" height="13.9214" fill="white" transform="translate(0.225586 0.00366211)"/>
</clipPath>
</defs>
</svg>
