<svg width="29" height="20" viewBox="0 0 29 20" fill="none" xmlns="http://www.w3.org/2000/svg">
<g clip-path="url(#clip0_211_2073)">
<path d="M27.0803 1.50259C27.0803 1.82695 27.3465 2.0899 27.6749 2.0899H28.2694C28.5978 2.0899 28.864 1.82695 28.864 1.50259C28.864 1.17823 28.5978 0.915283 28.2694 0.915283H27.6749C27.3465 0.915283 27.0803 1.17823 27.0803 1.50259Z" fill="#212326"/>
<path d="M9.83815 19.7092H12.7264L11.8856 18.8786C11.6626 18.6583 11.3601 18.5345 11.0448 18.5345H9.83815C5.24101 18.5345 1.51431 14.8533 1.51431 10.3122C1.51431 5.77115 5.24101 2.08991 9.83815 2.0899H19.3511C23.9482 2.0899 27.6749 5.77115 27.6749 10.3122C27.6749 14.8533 23.9482 18.5345 19.3511 18.5345H15.7925C15.3194 18.5345 14.8657 18.3489 14.5312 18.0185L13.5462 17.0454C12.9886 16.4947 12.2325 16.1853 11.444 16.1853H9.83815C6.55446 16.1853 3.89255 13.5559 3.89255 10.3122C3.89255 7.06859 6.55446 4.43913 9.83815 4.43913H19.3511C22.6348 4.43913 25.2967 7.06859 25.2967 10.3122C25.2967 13.5559 22.6348 16.1853 19.3511 16.1853H17.0661C16.5931 16.1853 16.1394 15.9997 15.8049 15.6693L14.8197 14.6962C14.2622 14.1455 13.5061 13.8361 12.7177 13.8361H9.83815C7.86797 13.8361 6.27079 12.2584 6.27079 10.3122C6.27079 8.36607 7.86797 6.78837 9.83815 6.78837H19.3511C21.3213 6.78837 22.9185 8.36607 22.9185 10.3122C22.9185 12.2346 21.36 13.7975 19.423 13.8354L19.4226 13.8361H18.5525C18.0795 13.8361 17.6258 13.6504 17.2913 13.32L16.3061 12.3469C15.8487 11.895 15.2575 11.6057 14.6245 11.5163L14.5946 11.4868H9.83815C9.18142 11.4868 8.64903 10.9609 8.64903 10.3122C8.64903 9.6635 9.18142 9.1376 9.83815 9.1376H19.3511C20.0078 9.1376 20.5402 9.6635 20.5402 10.3122C20.5402 10.9609 20.0078 11.4868 19.3511 11.4868H16.9729L17.8137 12.3174C18.0367 12.5377 18.3392 12.6615 18.6545 12.6615H19.3511C20.6645 12.6615 21.7293 11.6097 21.7293 10.3122C21.7293 9.01479 20.6645 7.96299 19.3511 7.96299H9.83815C8.52469 7.96299 7.45991 9.01479 7.45991 10.3122C7.45991 11.6097 8.52469 12.6615 9.83815 12.6615H14.2041C14.6771 12.6615 15.1308 12.8471 15.4653 13.1775L16.4505 14.1506C17.008 14.7013 17.7641 15.0107 18.5525 15.0107H19.6484V15.0017C22.1368 14.8501 24.1076 12.8085 24.1076 10.3122C24.1076 7.71735 21.978 5.61375 19.3511 5.61375H9.83815C7.21124 5.61375 5.08167 7.71735 5.08167 10.3122C5.08167 12.9071 7.21124 15.0107 9.83815 15.0107H12.7177C13.1907 15.0107 13.6444 15.1963 13.9789 15.5267L14.9641 16.4998C15.5216 17.0505 16.2777 17.3599 17.0661 17.3599H19.3511C23.2915 17.3599 26.4858 14.2046 26.4858 10.3122C26.4858 6.41987 23.2915 3.26452 19.3511 3.26452H9.83815C5.89774 3.26452 2.70343 6.41987 2.70343 10.3122C2.70343 14.2046 5.89774 17.3599 9.83815 17.3599H11.444C11.9171 17.3599 12.3708 17.5456 12.7053 17.876L13.6904 18.8491C14.2479 19.3998 15.0041 19.7092 15.7925 19.7092H19.3511C24.605 19.7092 28.864 15.502 28.864 10.3122C28.864 5.12243 24.605 0.915283 19.3511 0.915283L9.83815 0.915285C4.58429 0.915286 0.325195 5.12244 0.325195 10.3122C0.325196 15.502 4.58429 19.7092 9.83815 19.7092Z" fill="#212326"/>
</g>
<defs>
<clipPath id="clip0_211_2073">
<rect width="28.5388" height="18.7939" fill="white" transform="translate(0.325195 0.915283)"/>
</clipPath>
</defs>
</svg>
