<svg width="39" height="22" viewBox="0 0 39 22" fill="none" xmlns="http://www.w3.org/2000/svg">
<g clip-path="url(#clip0_211_2053)">
<path d="M38.5802 7.95001C38.5841 7.92099 38.5841 7.89165 38.5802 7.86262C38.5839 7.83897 38.5839 7.81485 38.5802 7.79115L38.2965 5.74982C38.2556 5.5056 38.1462 5.27734 37.9806 5.09056L37.9319 5.03496L37.8429 4.94759L32.9331 0.801395L33.0708 0.936435C32.9581 0.804263 32.8167 0.698543 32.6569 0.627062C32.497 0.555582 32.3228 0.520157 32.1472 0.523401H30.6564C30.414 0.518692 30.1771 0.594252 29.984 0.737862C29.7811 0.595117 29.5369 0.519944 29.2872 0.523401H27.7964C27.6009 0.520291 27.408 0.567863 27.2373 0.661313C27.0666 0.754764 26.9241 0.890775 26.8242 1.05557C26.6702 1.29095 26.6124 1.57454 26.6621 1.84986L26.8485 3.13661C26.725 3.068 26.5853 3.0324 26.4434 3.03336H19.2246C18.9655 3.03495 18.7125 3.10938 18.4954 3.24781C18.2854 3.37666 18.1168 3.56117 18.0093 3.77998L17.4502 3.31135C17.2302 3.11177 16.9398 3.00359 16.64 3.00953H5.31348C5.05356 3.01417 4.79941 3.08536 4.57622 3.21604C4.27087 3.39125 4.0471 3.67614 3.95235 4.01033L0.355083 15.8055C0.287869 15.9999 0.281257 16.2095 0.336094 16.4076C0.390931 16.6056 0.504733 16.7832 0.662961 16.9176C0.704191 16.9518 0.747482 16.9837 0.792595 17.0128C0.792595 17.0128 0.719666 16.9652 0.679156 16.9255L5.58897 21.0796C5.79666 21.2671 6.06821 21.3719 6.3505 21.3735H17.7662C18.0269 21.3669 18.2812 21.2929 18.5035 21.159C18.6292 21.0917 18.7416 21.0029 18.8357 20.8969L18.8762 20.8413L18.941 20.7619L18.9896 20.6745L19.5243 21.1273C19.729 21.3073 19.9947 21.4063 20.2697 21.4053H31.7097C31.9701 21.3968 32.2239 21.323 32.4469 21.1908C32.5698 21.1193 32.6816 21.0311 32.7792 20.9287L32.8196 20.8731L32.8844 20.7937C32.9189 20.7434 32.9488 20.6903 32.9735 20.6348C33 20.5866 33.0217 20.5361 33.0384 20.4839L36.3197 9.71335V9.61802C36.3237 9.58106 36.3237 9.54378 36.3197 9.50682V9.43535C36.3236 9.41165 36.3236 9.38753 36.3197 9.36383C36.3233 9.31361 36.3233 9.26318 36.3197 9.21291H37.3729C37.4646 9.22116 37.5568 9.22116 37.6484 9.21291H37.7213C37.7806 9.19557 37.8377 9.17156 37.8915 9.14144H37.9725L38.1183 9.03024L38.1831 8.98258L38.2965 8.83959V8.79198L38.3776 8.65692C38.3731 8.63066 38.3731 8.60378 38.3776 8.57752C38.3733 8.56462 38.3733 8.55068 38.3776 8.53779C38.3948 8.49122 38.4084 8.4434 38.4181 8.3948C38.4143 8.37914 38.4143 8.3628 38.4181 8.34714C38.4142 8.32349 38.4142 8.29932 38.4181 8.27567C38.4181 8.27567 38.5802 7.96588 38.5802 7.95001Z" fill="black"/>
<path d="M16.9722 3.91505C17.0152 3.95318 17.0453 4.00332 17.0583 4.05871C17.0714 4.1141 17.0668 4.17207 17.0452 4.22482L13.456 16.0121C13.4108 16.1408 13.3183 16.2484 13.1967 16.3139C13.0978 16.3788 12.9833 16.4171 12.8645 16.4251H1.45699C1.35957 16.4205 1.26727 16.381 1.19772 16.3139C1.15635 16.2764 1.12731 16.2276 1.11432 16.1739C1.10133 16.1201 1.10499 16.0638 1.12481 16.0121L4.72208 4.22482C4.76352 4.09451 4.85308 3.98404 4.97323 3.91505C5.07382 3.85482 5.1878 3.81939 5.30542 3.81179H16.7129C16.8096 3.8127 16.9023 3.84962 16.9722 3.91505ZM11.0173 13.6372L13.1643 6.59974H7.15268L5.01374 13.6372H11.0173ZM27.8612 4.03419C27.9002 4.07853 27.9488 4.1137 28.0035 4.13707C28.0583 4.16045 28.1176 4.17144 28.1772 4.16922H29.6599C29.7164 4.16976 29.772 4.15619 29.8216 4.12978C29.8713 4.10338 29.9132 4.06501 29.9435 4.0183C29.9698 3.98182 29.9884 3.94052 29.9981 3.89686C30.0079 3.8532 30.0085 3.80807 30.0001 3.76414L29.7085 1.66721C29.6807 1.57016 29.6309 1.48054 29.5627 1.40509C29.5237 1.36075 29.4751 1.32558 29.4204 1.30221C29.3657 1.27883 29.3063 1.26785 29.2467 1.27006H27.764C27.7076 1.26953 27.6519 1.2831 27.6023 1.30951C27.5527 1.33591 27.5107 1.37428 27.4805 1.42098C27.4237 1.53218 27.3995 1.60367 27.4237 1.66721L27.7235 3.76414C27.7389 3.86624 27.7872 3.96085 27.8612 4.03419ZM32.5685 1.65132C32.5407 1.55427 32.4908 1.46465 32.4227 1.38921C32.3854 1.34503 32.3382 1.30987 32.2848 1.28645C32.2314 1.26304 32.1732 1.25199 32.1148 1.25418H30.624C30.5685 1.25263 30.5136 1.26584 30.4651 1.2924C30.4166 1.31897 30.3763 1.35791 30.3486 1.40509C30.2947 1.47556 30.2713 1.56407 30.2838 1.65132L30.5835 3.74825C30.6023 3.84927 30.6501 3.94295 30.7213 4.0183C30.7609 4.06178 30.8096 4.09635 30.8642 4.11966C30.9187 4.14296 30.9777 4.15445 31.0372 4.15333H32.528C32.5834 4.15405 32.638 4.14049 32.6863 4.114C32.7347 4.08751 32.7751 4.04904 32.8035 4.00242C32.8317 3.96689 32.8513 3.9256 32.8612 3.88162C32.871 3.83765 32.8706 3.79208 32.8602 3.74825L32.5685 1.65132ZM26.5568 4.82848L26.411 3.7959H19.2246C19.1117 3.802 19.0026 3.83766 18.9086 3.89916C18.8489 3.93106 18.797 3.97528 18.7564 4.02876C18.7159 4.08224 18.6876 4.14371 18.6737 4.20894L18.0741 6.17876C18.0502 6.22799 18.042 6.28322 18.0506 6.3371C18.0594 6.39097 18.0845 6.44099 18.1227 6.48061C18.191 6.54357 18.2802 6.58027 18.3739 6.58387H27.1078L24.9608 13.6213H16.2511C16.1388 13.6238 16.0295 13.6568 15.9352 13.7166C15.8206 13.7879 15.7369 13.8982 15.7002 14.0263L15.0926 15.9962C15.0728 16.0467 15.0675 16.1017 15.0775 16.1549C15.0876 16.2082 15.1124 16.2577 15.1493 16.298C15.2155 16.3652 15.3053 16.405 15.4004 16.4092H26.8404C26.9587 16.3992 27.0728 16.3611 27.1726 16.298C27.2922 16.2321 27.382 16.1243 27.4237 15.9962L30.7131 5.22563H27.0106C26.9518 5.22676 26.8935 5.21607 26.8391 5.19421C26.7848 5.17235 26.7356 5.13978 26.6946 5.09853C26.6276 5.02651 26.5802 4.93909 26.5568 4.84437V4.82848Z" fill="white"/>
</g>
<defs>
<clipPath id="clip0_211_2053">
<rect width="38.2838" height="20.8821" fill="white" transform="translate(0.299316 0.523193)"/>
</clipPath>
</defs>
</svg>
