<svg width="12" height="13" viewBox="0 0 12 13" fill="none" xmlns="http://www.w3.org/2000/svg">
<path fill-rule="evenodd" clip-rule="evenodd" d="M11.4609 0.766873C11.6027 0.908682 11.6508 1.11919 11.5845 1.30848L7.93014 11.7495C7.85943 11.9516 7.67255 12.09 7.45867 12.0987C7.2448 12.1074 7.04727 11.9847 6.96034 11.7891L4.95368 7.2741L0.438691 5.26744C0.243089 5.18051 0.120373 4.98298 0.129099 4.7691C0.137824 4.55523 0.276222 4.36835 0.478257 4.29764L10.9193 0.643276C11.1086 0.577025 11.3191 0.625064 11.4609 0.766873ZM5.97186 6.99421L7.37965 10.1617L9.84329 3.12279L5.97186 6.99421ZM9.10499 2.38449L2.06604 4.84813L5.23357 6.25592L9.10499 2.38449Z" fill="white"/>
</svg>
